# xmcd
#
# Track frame offsets: 
#        150
#        15708
#        41385
#        57254
#        79106
#        110306
#        126514
#        147191
#
# Disc length: 2238 seconds
#
# Revision: 0
# Processed by: cddbd v1.5.2PL0 Copyright (c) Steve Scherf et al.
# Submitted via: ExactAudioCopy v1.2
#
DISCID=6508bc08
DTITLE=Carey Bell - Heartaches and Pain
DYEAR=1977
DGENRE=Blues
TTITLE0=Carey Bell Rocks
TTITLE1=Heartaches and Pain
TTITLE2=One Day You're Gonna Get Lucky
TTITLE3=Black Eyed Peas
TTITLE4=So Hard to Leave You Alone
TTITLE5=Stop That Train, Conductor
TTITLE6=Everything's Gonna Be All Right
TTITLE7=Capri Crash
EXTD=
EXTT0=
EXTT1=
EXTT2=
EXTT3=
EXTT4=
EXTT5=
EXTT6=
EXTT7=
PLAYORDER=
